<?xml version="1.0" encoding="UTF-8" standalone="no"?><svg xmlns="http://www.w3.org/2000/svg" xmlns:xlink="http://www.w3.org/1999/xlink" clip-rule="evenodd" stroke-miterlimit="10" viewBox="0 0 271 36"><desc>SVG generated by Keynote</desc><defs></defs><g transform="matrix(1.00, 0.00, -0.00, -1.00, 0.0, 36.0)"><image xlink:href="5461759BDEB9830E03477BE4BE014EFA.png" width="269.00" height="34.00" transform="matrix(1.00, 0.00, -0.00, -1.00, 1.0, 34.0)"></image><text xml:space="preserve" font-family="Cochin,Cochin" font-size="29.9" fill="#FEFFFE" transform="matrix(1.00, 0.00, -0.00, -1.00, 2.2, 8.5)">B</text><text xml:space="preserve" font-family="Cochin,Cochin" font-size="29.9" fill="#FEFFFE" transform="matrix(1.00, 0.00, -0.00, -1.00, 23.8, 8.5)">y</text><text xml:space="preserve" font-family="Cochin,Cochin" font-size="29.9" fill="#FEFFFE" transform="matrix(1.00, 0.00, -0.00, -1.00, 38.3, 8.5)">.</text><text xml:space="preserve" font-family="Cochin,Cochin" font-size="29.9" fill="#FEFFFE" transform="matrix(1.00, 0.00, -0.00, -1.00, 47.0, 8.5)">K</text><text xml:space="preserve" font-family="Cochin,Cochin" font-size="29.9" fill="#FEFFFE" transform="matrix(1.00, 0.00, -0.00, -1.00, 70.3, 8.5)">r</text><text xml:space="preserve" font-family="Cochin,Cochin" font-size="29.9" fill="#FEFFFE" transform="matrix(1.00, 0.00, -0.00, -1.00, 83.1, 8.5)">i</text><text xml:space="preserve" font-family="Cochin,Cochin" font-size="29.9" fill="#FEFFFE" transform="matrix(1.00, 0.00, -0.00, -1.00, 92.1, 8.5)">s</text><text xml:space="preserve" font-family="Cochin,Cochin" font-size="29.9" fill="#FEFFFE" transform="matrix(1.00, 0.00, -0.00, -1.00, 104.9, 8.5)">h</text><text xml:space="preserve" font-family="Cochin,Cochin" font-size="29.9" fill="#FEFFFE" transform="matrix(1.00, 0.00, -0.00, -1.00, 122.1, 8.5)">n</text><text xml:space="preserve" font-family="Cochin,Cochin" font-size="29.9" fill="#FEFFFE" transform="matrix(1.00, 0.00, -0.00, -1.00, 139.4, 8.5)">a</text><text xml:space="preserve" font-family="Cochin,Cochin" font-size="29.9" fill="#FEFFFE" transform="matrix(1.00, 0.00, -0.00, -1.00, 154.4, 8.5)"> </text><text xml:space="preserve" font-family="Cochin,Cochin" font-size="29.9" fill="#FEFFFE" transform="matrix(1.00, 0.00, -0.00, -1.00, 163.1, 8.5)">R</text><text xml:space="preserve" font-family="Cochin,Cochin" font-size="29.9" fill="#FEFFFE" transform="matrix(1.00, 0.00, -0.00, -1.00, 185.8, 8.5)">a</text><text xml:space="preserve" font-family="Cochin,Cochin" font-size="29.9" fill="#FEFFFE" transform="matrix(1.00, 0.00, -0.00, -1.00, 200.9, 8.5)">m</text><text xml:space="preserve" font-family="Cochin,Cochin" font-size="29.9" fill="#FEFFFE" transform="matrix(1.00, 0.00, -0.00, -1.00, 225.3, 8.5)">e</text><text xml:space="preserve" font-family="Cochin,Cochin" font-size="29.9" fill="#FEFFFE" transform="matrix(1.00, 0.00, -0.00, -1.00, 239.8, 8.5)">s</text><text xml:space="preserve" font-family="Cochin,Cochin" font-size="29.9" fill="#FEFFFE" transform="matrix(1.00, 0.00, -0.00, -1.00, 252.6, 8.5)">h</text></g></svg>