<?xml version="1.0" encoding="UTF-8" standalone="no"?><svg xmlns="http://www.w3.org/2000/svg" xmlns:xlink="http://www.w3.org/1999/xlink" clip-rule="evenodd" stroke-miterlimit="10" viewBox="0 0 254 30"><desc>SVG generated by Keynote</desc><defs></defs><g transform="matrix(1.00, 0.00, -0.00, -1.00, 0.0, 30.0)"><image xlink:href="8D1A1E63D18A23B4F33EBC955FF4163D.png" width="252.00" height="27.00" transform="matrix(1.00, 0.00, -0.00, -1.00, 1.0, 28.0)"></image><text xml:space="preserve" font-family="Cochin,Cochin" font-size="29.9" fill="#FEFFFE" transform="matrix(1.00, 0.00, -0.00, -1.00, 3.3, 2.5)">N</text><text xml:space="preserve" font-family="Cochin,Cochin" font-size="29.9" fill="#FEFFFE" transform="matrix(1.00, 0.00, -0.00, -1.00, 28.9, 2.5)">.</text><text xml:space="preserve" font-family="Cochin,Cochin" font-size="29.9" fill="#FEFFFE" transform="matrix(1.00, 0.00, -0.00, -1.00, 37.6, 2.5)">V</text><text xml:space="preserve" font-family="Cochin,Cochin" font-size="29.9" fill="#FEFFFE" transform="matrix(1.00, 0.00, -0.00, -1.00, 58.1, 2.5)">e</text><text xml:space="preserve" font-family="Cochin,Cochin" font-size="29.9" fill="#FEFFFE" transform="matrix(1.00, 0.00, -0.00, -1.00, 72.6, 2.5)">n</text><text xml:space="preserve" font-family="Cochin,Cochin" font-size="29.9" fill="#FEFFFE" transform="matrix(1.00, 0.00, -0.00, -1.00, 89.8, 2.5)">k</text><text xml:space="preserve" font-family="Cochin,Cochin" font-size="29.9" fill="#FEFFFE" transform="matrix(1.00, 0.00, -0.00, -1.00, 107.1, 2.5)">a</text><text xml:space="preserve" font-family="Cochin,Cochin" font-size="29.9" fill="#FEFFFE" transform="matrix(1.00, 0.00, -0.00, -1.00, 122.1, 2.5)">t</text><text xml:space="preserve" font-family="Cochin,Cochin" font-size="29.9" fill="#FEFFFE" transform="matrix(1.00, 0.00, -0.00, -1.00, 132.7, 2.5)">e</text><text xml:space="preserve" font-family="Cochin,Cochin" font-size="29.9" fill="#FEFFFE" transform="matrix(1.00, 0.00, -0.00, -1.00, 147.2, 2.5)">s</text><text xml:space="preserve" font-family="Cochin,Cochin" font-size="29.9" fill="#FEFFFE" transform="matrix(1.00, 0.00, -0.00, -1.00, 160.0, 2.5)">h</text><text xml:space="preserve" font-family="Cochin,Cochin" font-size="29.9" fill="#FEFFFE" transform="matrix(1.00, 0.00, -0.00, -1.00, 177.2, 2.5)">.</text><text xml:space="preserve" font-family="Cochin,Cochin" font-size="29.9" fill="#FEFFFE" transform="matrix(1.00, 0.00, -0.00, -1.00, 185.9, 2.5)">N</text><text xml:space="preserve" font-family="Cochin,Cochin" font-size="29.9" fill="#FEFFFE" transform="matrix(1.00, 0.00, -0.00, -1.00, 211.5, 2.5)">a</text><text xml:space="preserve" font-family="Cochin,Cochin" font-size="29.9" fill="#FEFFFE" transform="matrix(1.00, 0.00, -0.00, -1.00, 226.5, 2.5)">i</text><text xml:space="preserve" font-family="Cochin,Cochin" font-size="29.9" fill="#FEFFFE" transform="matrix(1.00, 0.00, -0.00, -1.00, 235.4, 2.5)">k</text></g></svg>