<?xml version="1.0" encoding="UTF-8" standalone="no"?><svg xmlns="http://www.w3.org/2000/svg" xmlns:xlink="http://www.w3.org/1999/xlink" clip-rule="evenodd" stroke-miterlimit="10" viewBox="0 0 850 112"><desc>SVG generated by Keynote</desc><defs></defs><g transform="matrix(1.00, 0.00, -0.00, -1.00, 0.0, 112.0)"><image xlink:href="2838AAD84CF898CCE7B305F5F9E67ECF.png" width="848.00" height="45.00" transform="matrix(1.00, 0.00, -0.00, -1.00, 1.0, 111.0)"></image><text xml:space="preserve" font-family="Cochin,Cochin" font-size="58.0" fill="#EAEAEA" transform="matrix(1.00, 0.00, -0.00, -1.00, 1.9, 67.5)">T</text><text xml:space="preserve" font-family="Cochin,Cochin" font-size="58.0" fill="#EAEAEA" transform="matrix(1.00, 0.00, -0.00, -1.00, 41.8, 67.5)">W</text><text xml:space="preserve" font-family="Cochin,Cochin" font-size="58.0" fill="#EAEAEA" transform="matrix(1.00, 0.00, -0.00, -1.00, 102.1, 67.5)">I</text><text xml:space="preserve" font-family="Cochin,Cochin" font-size="58.0" fill="#EAEAEA" transform="matrix(1.00, 0.00, -0.00, -1.00, 127.0, 67.5)">T</text><text xml:space="preserve" font-family="Cochin,Cochin" font-size="58.0" fill="#EAEAEA" transform="matrix(1.00, 0.00, -0.00, -1.00, 166.9, 67.5)">T</text><text xml:space="preserve" font-family="Cochin,Cochin" font-size="58.0" fill="#EAEAEA" transform="matrix(1.00, 0.00, -0.00, -1.00, 206.8, 67.5)">E</text><text xml:space="preserve" font-family="Cochin,Cochin" font-size="58.0" fill="#EAEAEA" transform="matrix(1.00, 0.00, -0.00, -1.00, 248.9, 67.5)">R</text><text xml:space="preserve" font-family="Cochin,Cochin" font-size="58.0" fill="#EAEAEA" transform="matrix(1.00, 0.00, -0.00, -1.00, 293.1, 67.5)"> </text><text xml:space="preserve" font-family="Cochin,Cochin" font-size="58.0" fill="#EAEAEA" transform="matrix(1.00, 0.00, -0.00, -1.00, 309.9, 67.5)">T</text><text xml:space="preserve" font-family="Cochin,Cochin" font-size="58.0" fill="#EAEAEA" transform="matrix(1.00, 0.00, -0.00, -1.00, 349.8, 67.5)">E</text><text xml:space="preserve" font-family="Cochin,Cochin" font-size="58.0" fill="#EAEAEA" transform="matrix(1.00, 0.00, -0.00, -1.00, 391.9, 67.5)">X</text><text xml:space="preserve" font-family="Cochin,Cochin" font-size="58.0" fill="#EAEAEA" transform="matrix(1.00, 0.00, -0.00, -1.00, 437.2, 67.5)">T</text><text xml:space="preserve" font-family="Cochin,Cochin" font-size="58.0" fill="#EAEAEA" transform="matrix(1.00, 0.00, -0.00, -1.00, 477.1, 67.5)"> </text><text xml:space="preserve" font-family="Cochin,Cochin" font-size="58.0" fill="#EAEAEA" transform="matrix(1.00, 0.00, -0.00, -1.00, 493.9, 67.5)">A</text><text xml:space="preserve" font-family="Cochin,Cochin" font-size="58.0" fill="#EAEAEA" transform="matrix(1.00, 0.00, -0.00, -1.00, 537.0, 67.5)">N</text><text xml:space="preserve" font-family="Cochin,Cochin" font-size="58.0" fill="#EAEAEA" transform="matrix(1.00, 0.00, -0.00, -1.00, 586.6, 67.5)">A</text><text xml:space="preserve" font-family="Cochin,Cochin" font-size="58.0" fill="#EAEAEA" transform="matrix(1.00, 0.00, -0.00, -1.00, 629.8, 67.5)">L</text><text xml:space="preserve" font-family="Cochin,Cochin" font-size="58.0" fill="#EAEAEA" transform="matrix(1.00, 0.00, -0.00, -1.00, 663.2, 67.5)">Y</text><text xml:space="preserve" font-family="Cochin,Cochin" font-size="58.0" fill="#EAEAEA" transform="matrix(1.00, 0.00, -0.00, -1.00, 707.4, 67.5)">T</text><text xml:space="preserve" font-family="Cochin,Cochin" font-size="58.0" fill="#EAEAEA" transform="matrix(1.00, 0.00, -0.00, -1.00, 747.3, 67.5)">I</text><text xml:space="preserve" font-family="Cochin,Cochin" font-size="58.0" fill="#EAEAEA" transform="matrix(1.00, 0.00, -0.00, -1.00, 772.2, 67.5)">C</text><text xml:space="preserve" font-family="Cochin,Cochin" font-size="58.0" fill="#EAEAEA" transform="matrix(1.00, 0.00, -0.00, -1.00, 815.4, 67.5)">S</text><text xml:space="preserve" font-family="Cochin,Cochin" font-size="58.0" fill="#EAEAEA" transform="matrix(1.00, 0.00, -0.00, -1.00, 427.0, 0.5)">	</text><text xml:space="preserve" font-family="Cochin,Cochin" font-size="58.0" fill="#EAEAEA" transform="matrix(1.00, 0.00, -0.00, -1.00, 455.0, 0.5)">
</text><text xml:space="preserve" font-family="Cochin,Cochin" font-size="58.0" fill="#EAEAEA" transform="matrix(1.00, 0.00, -0.00, -1.00, 455.0, 0.5)"></text></g></svg>