<?xml version="1.0" encoding="UTF-8" standalone="no"?><svg xmlns="http://www.w3.org/2000/svg" xmlns:xlink="http://www.w3.org/1999/xlink" clip-rule="evenodd" stroke-miterlimit="10" viewBox="0 0 912 41"><desc>SVG generated by Keynote</desc><defs></defs><g transform="matrix(1.00, 0.00, -0.00, -1.00, 0.0, 41.0)"><image xlink:href="../../393366B0-4E87-4234-A612-7113855B7781/assets/424E56D2EC0C9800351C42FF3B08C54C.png" width="18.00" height="18.00" transform="matrix(1.00, 0.00, -0.00, -1.00, 2.0, 29.0)"></image><text xml:space="preserve" font-family="Cochin,Cochin" font-size="27.8" fill="#EAEAEA" transform="matrix(1.00, 0.00, -0.00, -1.00, 4.3, 12.9)">•</text><image xlink:href="../../393366B0-4E87-4234-A612-7113855B7781/assets/9818CC521B42E72A275571EEB759C53B.png" width="876.00" height="36.00" transform="matrix(1.00, 0.00, -0.00, -1.00, 33.0, 39.0)"></image><text xml:space="preserve" font-family="Cochin,Cochin" font-size="37.0" fill="#EAEAEA" transform="matrix(1.00, 0.00, -0.00, -1.00, 36.3, 10.2)">R</text><text xml:space="preserve" font-family="Cochin,Cochin" font-size="37.0" fill="#EAEAEA" transform="matrix(1.00, 0.00, -0.00, -1.00, 63.0, 10.2)">a</text><text xml:space="preserve" font-family="Cochin,Cochin" font-size="37.0" fill="#EAEAEA" transform="matrix(1.00, 0.00, -0.00, -1.00, 80.1, 10.2)">t</text><text xml:space="preserve" font-family="Cochin,Cochin" font-size="37.0" fill="#EAEAEA" transform="matrix(1.00, 0.00, -0.00, -1.00, 91.8, 10.2)">i</text><text xml:space="preserve" font-family="Cochin,Cochin" font-size="37.0" fill="#EAEAEA" transform="matrix(1.00, 0.00, -0.00, -1.00, 101.3, 10.2)">o</text><text xml:space="preserve" font-family="Cochin,Cochin" font-size="37.0" fill="#EAEAEA" transform="matrix(1.00, 0.00, -0.00, -1.00, 119.8, 10.2)"> </text><text xml:space="preserve" font-family="Cochin,Cochin" font-size="37.0" fill="#EAEAEA" transform="matrix(1.00, 0.00, -0.00, -1.00, 129.1, 10.2)">o</text><text xml:space="preserve" font-family="Cochin,Cochin" font-size="37.0" fill="#EAEAEA" transform="matrix(1.00, 0.00, -0.00, -1.00, 147.6, 10.2)">f</text><text xml:space="preserve" font-family="Cochin,Cochin" font-size="37.0" fill="#EAEAEA" transform="matrix(1.00, 0.00, -0.00, -1.00, 159.2, 10.2)"> </text><text xml:space="preserve" font-family="Cochin,Cochin" font-size="37.0" fill="#EAEAEA" transform="matrix(1.00, 0.00, -0.00, -1.00, 168.5, 10.2)">N</text><text xml:space="preserve" font-family="Cochin,Cochin" font-size="37.0" fill="#EAEAEA" transform="matrix(1.00, 0.00, -0.00, -1.00, 198.6, 10.2)">u</text><text xml:space="preserve" font-family="Cochin,Cochin" font-size="37.0" fill="#EAEAEA" transform="matrix(1.00, 0.00, -0.00, -1.00, 218.5, 10.2)">m</text><text xml:space="preserve" font-family="Cochin,Cochin" font-size="37.0" fill="#EAEAEA" transform="matrix(1.00, 0.00, -0.00, -1.00, 247.3, 10.2)">b</text><text xml:space="preserve" font-family="Cochin,Cochin" font-size="37.0" fill="#EAEAEA" transform="matrix(1.00, 0.00, -0.00, -1.00, 267.2, 10.2)">e</text><text xml:space="preserve" font-family="Cochin,Cochin" font-size="37.0" fill="#EAEAEA" transform="matrix(1.00, 0.00, -0.00, -1.00, 283.6, 10.2)">r</text><text xml:space="preserve" font-family="Cochin,Cochin" font-size="37.0" fill="#EAEAEA" transform="matrix(1.00, 0.00, -0.00, -1.00, 298.0, 10.2)"> </text><text xml:space="preserve" font-family="Cochin,Cochin" font-size="37.0" fill="#EAEAEA" transform="matrix(1.00, 0.00, -0.00, -1.00, 307.2, 10.2)">o</text><text xml:space="preserve" font-family="Cochin,Cochin" font-size="37.0" fill="#EAEAEA" transform="matrix(1.00, 0.00, -0.00, -1.00, 325.7, 10.2)">f</text><text xml:space="preserve" font-family="Cochin,Cochin" font-size="37.0" fill="#EAEAEA" transform="matrix(1.00, 0.00, -0.00, -1.00, 337.4, 10.2)"> </text><text xml:space="preserve" font-family="Cochin,Cochin" font-size="37.0" fill="#EAEAEA" transform="matrix(1.00, 0.00, -0.00, -1.00, 346.6, 10.2)">R</text><text xml:space="preserve" font-family="Cochin,Cochin" font-size="37.0" fill="#EAEAEA" transform="matrix(1.00, 0.00, -0.00, -1.00, 373.4, 10.2)">e</text><text xml:space="preserve" font-family="Cochin,Cochin" font-size="37.0" fill="#EAEAEA" transform="matrix(1.00, 0.00, -0.00, -1.00, 389.8, 10.2)">t</text><text xml:space="preserve" font-family="Cochin,Cochin" font-size="37.0" fill="#EAEAEA" transform="matrix(1.00, 0.00, -0.00, -1.00, 401.4, 10.2)">w</text><text xml:space="preserve" font-family="Cochin,Cochin" font-size="37.0" fill="#EAEAEA" transform="matrix(1.00, 0.00, -0.00, -1.00, 428.9, 10.2)">e</text><text xml:space="preserve" font-family="Cochin,Cochin" font-size="37.0" fill="#EAEAEA" transform="matrix(1.00, 0.00, -0.00, -1.00, 445.3, 10.2)">e</text><text xml:space="preserve" font-family="Cochin,Cochin" font-size="37.0" fill="#EAEAEA" transform="matrix(1.00, 0.00, -0.00, -1.00, 461.7, 10.2)">t</text><text xml:space="preserve" font-family="Cochin,Cochin" font-size="37.0" fill="#EAEAEA" transform="matrix(1.00, 0.00, -0.00, -1.00, 473.4, 10.2)">s</text><text xml:space="preserve" font-family="Cochin,Cochin" font-size="37.0" fill="#EAEAEA" transform="matrix(1.00, 0.00, -0.00, -1.00, 487.8, 10.2)"> </text><text xml:space="preserve" font-family="Cochin,Cochin" font-size="37.0" fill="#EAEAEA" transform="matrix(1.00, 0.00, -0.00, -1.00, 497.0, 10.2)">a</text><text xml:space="preserve" font-family="Cochin,Cochin" font-size="37.0" fill="#EAEAEA" transform="matrix(1.00, 0.00, -0.00, -1.00, 514.1, 10.2)">n</text><text xml:space="preserve" font-family="Cochin,Cochin" font-size="37.0" fill="#EAEAEA" transform="matrix(1.00, 0.00, -0.00, -1.00, 534.0, 10.2)">d</text><text xml:space="preserve" font-family="Cochin,Cochin" font-size="37.0" fill="#EAEAEA" transform="matrix(1.00, 0.00, -0.00, -1.00, 553.9, 10.2)"> </text><text xml:space="preserve" font-family="Cochin,Cochin" font-size="37.0" fill="#EAEAEA" transform="matrix(1.00, 0.00, -0.00, -1.00, 563.1, 10.2)">t</text><text xml:space="preserve" font-family="Cochin,Cochin" font-size="37.0" fill="#EAEAEA" transform="matrix(1.00, 0.00, -0.00, -1.00, 574.8, 10.2)">o</text><text xml:space="preserve" font-family="Cochin,Cochin" font-size="37.0" fill="#EAEAEA" transform="matrix(1.00, 0.00, -0.00, -1.00, 593.3, 10.2)">t</text><text xml:space="preserve" font-family="Cochin,Cochin" font-size="37.0" fill="#EAEAEA" transform="matrix(1.00, 0.00, -0.00, -1.00, 604.9, 10.2)">a</text><text xml:space="preserve" font-family="Cochin,Cochin" font-size="37.0" fill="#EAEAEA" transform="matrix(1.00, 0.00, -0.00, -1.00, 622.1, 10.2)">l</text><text xml:space="preserve" font-family="Cochin,Cochin" font-size="37.0" fill="#EAEAEA" transform="matrix(1.00, 0.00, -0.00, -1.00, 631.7, 10.2)"> </text><text xml:space="preserve" font-family="Cochin,Cochin" font-size="37.0" fill="#EAEAEA" transform="matrix(1.00, 0.00, -0.00, -1.00, 640.9, 10.2)">n</text><text xml:space="preserve" font-family="Cochin,Cochin" font-size="37.0" fill="#EAEAEA" transform="matrix(1.00, 0.00, -0.00, -1.00, 660.8, 10.2)">u</text><text xml:space="preserve" font-family="Cochin,Cochin" font-size="37.0" fill="#EAEAEA" transform="matrix(1.00, 0.00, -0.00, -1.00, 680.6, 10.2)">m</text><text xml:space="preserve" font-family="Cochin,Cochin" font-size="37.0" fill="#EAEAEA" transform="matrix(1.00, 0.00, -0.00, -1.00, 709.4, 10.2)">b</text><text xml:space="preserve" font-family="Cochin,Cochin" font-size="37.0" fill="#EAEAEA" transform="matrix(1.00, 0.00, -0.00, -1.00, 729.3, 10.2)">e</text><text xml:space="preserve" font-family="Cochin,Cochin" font-size="37.0" fill="#EAEAEA" transform="matrix(1.00, 0.00, -0.00, -1.00, 745.7, 10.2)">r</text><text xml:space="preserve" font-family="Cochin,Cochin" font-size="37.0" fill="#EAEAEA" transform="matrix(1.00, 0.00, -0.00, -1.00, 760.1, 10.2)"> </text><text xml:space="preserve" font-family="Cochin,Cochin" font-size="37.0" fill="#EAEAEA" transform="matrix(1.00, 0.00, -0.00, -1.00, 769.4, 10.2)">o</text><text xml:space="preserve" font-family="Cochin,Cochin" font-size="37.0" fill="#EAEAEA" transform="matrix(1.00, 0.00, -0.00, -1.00, 787.9, 10.2)">f</text><text xml:space="preserve" font-family="Cochin,Cochin" font-size="37.0" fill="#EAEAEA" transform="matrix(1.00, 0.00, -0.00, -1.00, 799.5, 10.2)"> </text><text xml:space="preserve" font-family="Cochin,Cochin" font-size="37.0" fill="#EAEAEA" transform="matrix(1.00, 0.00, -0.00, -1.00, 808.8, 10.2)">t</text><text xml:space="preserve" font-family="Cochin,Cochin" font-size="37.0" fill="#EAEAEA" transform="matrix(1.00, 0.00, -0.00, -1.00, 820.4, 10.2)">w</text><text xml:space="preserve" font-family="Cochin,Cochin" font-size="37.0" fill="#EAEAEA" transform="matrix(1.00, 0.00, -0.00, -1.00, 847.8, 10.2)">e</text><text xml:space="preserve" font-family="Cochin,Cochin" font-size="37.0" fill="#EAEAEA" transform="matrix(1.00, 0.00, -0.00, -1.00, 864.3, 10.2)">e</text><text xml:space="preserve" font-family="Cochin,Cochin" font-size="37.0" fill="#EAEAEA" transform="matrix(1.00, 0.00, -0.00, -1.00, 880.7, 10.2)">t</text><text xml:space="preserve" font-family="Cochin,Cochin" font-size="37.0" fill="#EAEAEA" transform="matrix(1.00, 0.00, -0.00, -1.00, 892.4, 10.2)">s</text></g></svg>