<?xml version="1.0" encoding="UTF-8" standalone="no"?><svg xmlns="http://www.w3.org/2000/svg" xmlns:xlink="http://www.w3.org/1999/xlink" clip-rule="evenodd" stroke-miterlimit="10" viewBox="0 0 718 48"><desc>SVG generated by Keynote</desc><defs></defs><g transform="matrix(1.00, 0.00, -0.00, -1.00, 0.0, 48.0)"><image xlink:href="../../2906D5FF-236E-4646-91D6-4DB9D23BA5C2/assets/F357D7AF71BB0AF6D26928AF14FF5CD2.png" width="713.00" height="45.00" transform="matrix(1.00, 0.00, -0.00, -1.00, 2.0, 47.0)"></image><text xml:space="preserve" font-family="Cochin,Cochin" font-size="58.0" fill="#EAEAEA" transform="matrix(1.00, 0.00, -0.00, -1.00, 5.4, 3.4)">W</text><text xml:space="preserve" font-family="Cochin,Cochin" font-size="58.0" fill="#EAEAEA" transform="matrix(1.00, 0.00, -0.00, -1.00, 65.8, 3.4)">H</text><text xml:space="preserve" font-family="Cochin,Cochin" font-size="58.0" fill="#EAEAEA" transform="matrix(1.00, 0.00, -0.00, -1.00, 116.4, 3.4)">A</text><text xml:space="preserve" font-family="Cochin,Cochin" font-size="58.0" fill="#EAEAEA" transform="matrix(1.00, 0.00, -0.00, -1.00, 155.3, 3.4)">T</text><text xml:space="preserve" font-family="Cochin,Cochin" font-size="58.0" fill="#EAEAEA" transform="matrix(1.00, 0.00, -0.00, -1.00, 195.2, 3.4)"> </text><text xml:space="preserve" font-family="Cochin,Cochin" font-size="58.0" fill="#EAEAEA" transform="matrix(1.00, 0.00, -0.00, -1.00, 212.0, 3.4)">W</text><text xml:space="preserve" font-family="Cochin,Cochin" font-size="58.0" fill="#EAEAEA" transform="matrix(1.00, 0.00, -0.00, -1.00, 272.3, 3.4)">E</text><text xml:space="preserve" font-family="Cochin,Cochin" font-size="58.0" fill="#EAEAEA" transform="matrix(1.00, 0.00, -0.00, -1.00, 314.4, 3.4)"> </text><text xml:space="preserve" font-family="Cochin,Cochin" font-size="58.0" fill="#EAEAEA" transform="matrix(1.00, 0.00, -0.00, -1.00, 331.2, 3.4)">H</text><text xml:space="preserve" font-family="Cochin,Cochin" font-size="58.0" fill="#EAEAEA" transform="matrix(1.00, 0.00, -0.00, -1.00, 381.8, 3.4)">A</text><text xml:space="preserve" font-family="Cochin,Cochin" font-size="58.0" fill="#EAEAEA" transform="matrix(1.00, 0.00, -0.00, -1.00, 419.6, 3.4)">V</text><text xml:space="preserve" font-family="Cochin,Cochin" font-size="58.0" fill="#EAEAEA" transform="matrix(1.00, 0.00, -0.00, -1.00, 462.8, 3.4)">E</text><text xml:space="preserve" font-family="Cochin,Cochin" font-size="58.0" fill="#EAEAEA" transform="matrix(1.00, 0.00, -0.00, -1.00, 504.8, 3.4)"> </text><text xml:space="preserve" font-family="Cochin,Cochin" font-size="58.0" fill="#EAEAEA" transform="matrix(1.00, 0.00, -0.00, -1.00, 521.6, 3.4)">D</text><text xml:space="preserve" font-family="Cochin,Cochin" font-size="58.0" fill="#EAEAEA" transform="matrix(1.00, 0.00, -0.00, -1.00, 572.3, 3.4)">O</text><text xml:space="preserve" font-family="Cochin,Cochin" font-size="58.0" fill="#EAEAEA" transform="matrix(1.00, 0.00, -0.00, -1.00, 622.9, 3.4)">N</text><text xml:space="preserve" font-family="Cochin,Cochin" font-size="58.0" fill="#EAEAEA" transform="matrix(1.00, 0.00, -0.00, -1.00, 672.5, 3.4)">E</text><text xml:space="preserve" font-family="Cochin,Cochin" font-size="58.0" fill="#EAEAEA" transform="matrix(1.00, 0.00, -0.00, -1.00, 714.6, 3.4)">	</text><text xml:space="preserve" font-family="Cochin,Cochin" font-size="58.0" fill="#EAEAEA" transform="matrix(1.00, 0.00, -0.00, -1.00, 742.6, 3.4)">
</text><text xml:space="preserve" font-family="Cochin,Cochin" font-size="58.0" fill="#EAEAEA" transform="matrix(1.00, 0.00, -0.00, -1.00, 742.6, 3.4)"></text></g></svg>