<?xml version="1.0" encoding="UTF-8" standalone="no"?><svg xmlns="http://www.w3.org/2000/svg" xmlns:xlink="http://www.w3.org/1999/xlink" clip-rule="evenodd" stroke-miterlimit="10" viewBox="0 0 811 48"><desc>SVG generated by Keynote</desc><defs></defs><g transform="matrix(1.00, 0.00, -0.00, -1.00, 0.0, 48.0)"><image xlink:href="93ADAD5459DC63546A990C6DD3BA128E.png" width="808.00" height="45.00" transform="matrix(1.00, 0.00, -0.00, -1.00, 2.0, 47.0)"></image><text xml:space="preserve" font-family="Cochin,Cochin" font-size="58.0" fill="#EAEAEA" transform="matrix(1.00, 0.00, -0.00, -1.00, 4.9, 3.4)">A</text><text xml:space="preserve" font-family="Cochin,Cochin" font-size="58.0" fill="#EAEAEA" transform="matrix(1.00, 0.00, -0.00, -1.00, 48.0, 3.4)">N</text><text xml:space="preserve" font-family="Cochin,Cochin" font-size="58.0" fill="#EAEAEA" transform="matrix(1.00, 0.00, -0.00, -1.00, 97.6, 3.4)">A</text><text xml:space="preserve" font-family="Cochin,Cochin" font-size="58.0" fill="#EAEAEA" transform="matrix(1.00, 0.00, -0.00, -1.00, 140.8, 3.4)">L</text><text xml:space="preserve" font-family="Cochin,Cochin" font-size="58.0" fill="#EAEAEA" transform="matrix(1.00, 0.00, -0.00, -1.00, 174.2, 3.4)">Y</text><text xml:space="preserve" font-family="Cochin,Cochin" font-size="58.0" fill="#EAEAEA" transform="matrix(1.00, 0.00, -0.00, -1.00, 218.4, 3.4)">S</text><text xml:space="preserve" font-family="Cochin,Cochin" font-size="58.0" fill="#EAEAEA" transform="matrix(1.00, 0.00, -0.00, -1.00, 255.2, 3.4)">I</text><text xml:space="preserve" font-family="Cochin,Cochin" font-size="58.0" fill="#EAEAEA" transform="matrix(1.00, 0.00, -0.00, -1.00, 280.0, 3.4)">S</text><text xml:space="preserve" font-family="Cochin,Cochin" font-size="58.0" fill="#EAEAEA" transform="matrix(1.00, 0.00, -0.00, -1.00, 316.8, 3.4)"> </text><text xml:space="preserve" font-family="Cochin,Cochin" font-size="58.0" fill="#EAEAEA" transform="matrix(1.00, 0.00, -0.00, -1.00, 333.6, 3.4)">U</text><text xml:space="preserve" font-family="Cochin,Cochin" font-size="58.0" fill="#EAEAEA" transform="matrix(1.00, 0.00, -0.00, -1.00, 382.1, 3.4)">S</text><text xml:space="preserve" font-family="Cochin,Cochin" font-size="58.0" fill="#EAEAEA" transform="matrix(1.00, 0.00, -0.00, -1.00, 418.8, 3.4)">I</text><text xml:space="preserve" font-family="Cochin,Cochin" font-size="58.0" fill="#EAEAEA" transform="matrix(1.00, 0.00, -0.00, -1.00, 443.7, 3.4)">N</text><text xml:space="preserve" font-family="Cochin,Cochin" font-size="58.0" fill="#EAEAEA" transform="matrix(1.00, 0.00, -0.00, -1.00, 493.2, 3.4)">G</text><text xml:space="preserve" font-family="Cochin,Cochin" font-size="58.0" fill="#EAEAEA" transform="matrix(1.00, 0.00, -0.00, -1.00, 540.7, 3.4)"> </text><text xml:space="preserve" font-family="Cochin,Cochin" font-size="58.0" fill="#EAEAEA" transform="matrix(1.00, 0.00, -0.00, -1.00, 557.5, 3.4)">C</text><text xml:space="preserve" font-family="Cochin,Cochin" font-size="58.0" fill="#EAEAEA" transform="matrix(1.00, 0.00, -0.00, -1.00, 600.7, 3.4)">H</text><text xml:space="preserve" font-family="Cochin,Cochin" font-size="58.0" fill="#EAEAEA" transform="matrix(1.00, 0.00, -0.00, -1.00, 651.3, 3.4)">A</text><text xml:space="preserve" font-family="Cochin,Cochin" font-size="58.0" fill="#EAEAEA" transform="matrix(1.00, 0.00, -0.00, -1.00, 694.4, 3.4)">R</text><text xml:space="preserve" font-family="Cochin,Cochin" font-size="58.0" fill="#EAEAEA" transform="matrix(1.00, 0.00, -0.00, -1.00, 736.5, 3.4)">T</text><text xml:space="preserve" font-family="Cochin,Cochin" font-size="58.0" fill="#EAEAEA" transform="matrix(1.00, 0.00, -0.00, -1.00, 776.4, 3.4)">S</text></g></svg>