<?xml version="1.0" encoding="UTF-8" standalone="no"?><svg xmlns="http://www.w3.org/2000/svg" xmlns:xlink="http://www.w3.org/1999/xlink" clip-rule="evenodd" stroke-miterlimit="10" viewBox="0 0 474 47"><desc>SVG generated by Keynote</desc><defs></defs><g transform="matrix(1.00, 0.00, -0.00, -1.00, 0.0, 47.0)"><image xlink:href="7DC3F6CB26DFCDDDF1FB7C25076349CF.png" width="18.00" height="18.00" transform="matrix(1.00, 0.00, -0.00, -1.00, 3.0, 35.0)"></image><text xml:space="preserve" font-family="Cochin,Cochin" font-size="27.8" fill="#EAEAEA" transform="matrix(1.00, 0.00, -0.00, -1.00, 4.8, 18.9)">•</text><image xlink:href="3120A5551F8F43A4B5B7C22DA6AB29B2.png" width="440.00" height="44.00" transform="matrix(1.00, 0.00, -0.00, -1.00, 33.0, 45.0)"></image><text xml:space="preserve" font-family="Cochin,Cochin" font-size="37.0" fill="#EAEAEA" transform="matrix(1.00, 0.00, -0.00, -1.00, 36.8, 16.2)">N</text><text xml:space="preserve" font-family="Cochin,Cochin" font-size="37.0" fill="#EAEAEA" transform="matrix(1.00, 0.00, -0.00, -1.00, 66.9, 16.2)">u</text><text xml:space="preserve" font-family="Cochin,Cochin" font-size="37.0" fill="#EAEAEA" transform="matrix(1.00, 0.00, -0.00, -1.00, 86.8, 16.2)">m</text><text xml:space="preserve" font-family="Cochin,Cochin" font-size="37.0" fill="#EAEAEA" transform="matrix(1.00, 0.00, -0.00, -1.00, 115.6, 16.2)">b</text><text xml:space="preserve" font-family="Cochin,Cochin" font-size="37.0" fill="#EAEAEA" transform="matrix(1.00, 0.00, -0.00, -1.00, 135.4, 16.2)">e</text><text xml:space="preserve" font-family="Cochin,Cochin" font-size="37.0" fill="#EAEAEA" transform="matrix(1.00, 0.00, -0.00, -1.00, 151.9, 16.2)">r</text><text xml:space="preserve" font-family="Cochin,Cochin" font-size="37.0" fill="#EAEAEA" transform="matrix(1.00, 0.00, -0.00, -1.00, 166.3, 16.2)"> </text><text xml:space="preserve" font-family="Cochin,Cochin" font-size="37.0" fill="#EAEAEA" transform="matrix(1.00, 0.00, -0.00, -1.00, 175.5, 16.2)">o</text><text xml:space="preserve" font-family="Cochin,Cochin" font-size="37.0" fill="#EAEAEA" transform="matrix(1.00, 0.00, -0.00, -1.00, 194.0, 16.2)">f</text><text xml:space="preserve" font-family="Cochin,Cochin" font-size="37.0" fill="#EAEAEA" transform="matrix(1.00, 0.00, -0.00, -1.00, 205.7, 16.2)"> </text><text xml:space="preserve" font-family="Cochin,Cochin" font-size="37.0" fill="#EAEAEA" transform="matrix(1.00, 0.00, -0.00, -1.00, 214.9, 16.2)">r</text><text xml:space="preserve" font-family="Cochin,Cochin" font-size="37.0" fill="#EAEAEA" transform="matrix(1.00, 0.00, -0.00, -1.00, 229.3, 16.2)">e</text><text xml:space="preserve" font-family="Cochin,Cochin" font-size="37.0" fill="#EAEAEA" transform="matrix(1.00, 0.00, -0.00, -1.00, 245.7, 16.2)">t</text><text xml:space="preserve" font-family="Cochin,Cochin" font-size="37.0" fill="#EAEAEA" transform="matrix(1.00, 0.00, -0.00, -1.00, 257.4, 16.2)">w</text><text xml:space="preserve" font-family="Cochin,Cochin" font-size="37.0" fill="#EAEAEA" transform="matrix(1.00, 0.00, -0.00, -1.00, 284.8, 16.2)">e</text><text xml:space="preserve" font-family="Cochin,Cochin" font-size="37.0" fill="#EAEAEA" transform="matrix(1.00, 0.00, -0.00, -1.00, 301.2, 16.2)">e</text><text xml:space="preserve" font-family="Cochin,Cochin" font-size="37.0" fill="#EAEAEA" transform="matrix(1.00, 0.00, -0.00, -1.00, 317.7, 16.2)">t</text><text xml:space="preserve" font-family="Cochin,Cochin" font-size="37.0" fill="#EAEAEA" transform="matrix(1.00, 0.00, -0.00, -1.00, 329.3, 16.2)">s</text><text xml:space="preserve" font-family="Cochin,Cochin" font-size="37.0" fill="#EAEAEA" transform="matrix(1.00, 0.00, -0.00, -1.00, 343.7, 16.2)"> </text><text xml:space="preserve" font-family="Cochin,Cochin" font-size="37.0" fill="#EAEAEA" transform="matrix(1.00, 0.00, -0.00, -1.00, 353.0, 16.2)">p</text><text xml:space="preserve" font-family="Cochin,Cochin" font-size="37.0" fill="#EAEAEA" transform="matrix(1.00, 0.00, -0.00, -1.00, 372.8, 16.2)">e</text><text xml:space="preserve" font-family="Cochin,Cochin" font-size="37.0" fill="#EAEAEA" transform="matrix(1.00, 0.00, -0.00, -1.00, 389.3, 16.2)">r</text><text xml:space="preserve" font-family="Cochin,Cochin" font-size="37.0" fill="#EAEAEA" transform="matrix(1.00, 0.00, -0.00, -1.00, 403.7, 16.2)"> </text><text xml:space="preserve" font-family="Cochin,Cochin" font-size="37.0" fill="#EAEAEA" transform="matrix(1.00, 0.00, -0.00, -1.00, 412.9, 16.2)">d</text><text xml:space="preserve" font-family="Cochin,Cochin" font-size="37.0" fill="#EAEAEA" transform="matrix(1.00, 0.00, -0.00, -1.00, 432.8, 16.2)">a</text><text xml:space="preserve" font-family="Cochin,Cochin" font-size="37.0" fill="#EAEAEA" transform="matrix(1.00, 0.00, -0.00, -1.00, 449.9, 16.2)">y</text></g></svg>