<?xml version="1.0" encoding="UTF-8" standalone="no"?><svg xmlns="http://www.w3.org/2000/svg" xmlns:xlink="http://www.w3.org/1999/xlink" clip-rule="evenodd" stroke-miterlimit="10" viewBox="0 0 718 48"><desc>SVG generated by Keynote</desc><defs></defs><g transform="matrix(1.00, 0.00, -0.00, -1.00, 0.0, 48.0)"><image xlink:href="../../6C5886D2-1466-4446-B846-8D4DD25D08F5/assets/FF5535C610DE8ED96BD11B964355C49D.png" width="713.00" height="45.00" transform="matrix(1.00, 0.00, -0.00, -1.00, 2.0, 46.0)"></image><text xml:space="preserve" font-family="Cochin,Cochin" font-size="58.0" fill="#EAEAEA" transform="matrix(1.00, 0.00, -0.00, -1.00, 5.4, 2.5)">W</text><text xml:space="preserve" font-family="Cochin,Cochin" font-size="58.0" fill="#EAEAEA" transform="matrix(1.00, 0.00, -0.00, -1.00, 65.8, 2.5)">H</text><text xml:space="preserve" font-family="Cochin,Cochin" font-size="58.0" fill="#EAEAEA" transform="matrix(1.00, 0.00, -0.00, -1.00, 116.4, 2.5)">A</text><text xml:space="preserve" font-family="Cochin,Cochin" font-size="58.0" fill="#EAEAEA" transform="matrix(1.00, 0.00, -0.00, -1.00, 155.3, 2.5)">T</text><text xml:space="preserve" font-family="Cochin,Cochin" font-size="58.0" fill="#EAEAEA" transform="matrix(1.00, 0.00, -0.00, -1.00, 195.2, 2.5)"> </text><text xml:space="preserve" font-family="Cochin,Cochin" font-size="58.0" fill="#EAEAEA" transform="matrix(1.00, 0.00, -0.00, -1.00, 212.0, 2.5)">W</text><text xml:space="preserve" font-family="Cochin,Cochin" font-size="58.0" fill="#EAEAEA" transform="matrix(1.00, 0.00, -0.00, -1.00, 272.3, 2.5)">E</text><text xml:space="preserve" font-family="Cochin,Cochin" font-size="58.0" fill="#EAEAEA" transform="matrix(1.00, 0.00, -0.00, -1.00, 314.4, 2.5)"> </text><text xml:space="preserve" font-family="Cochin,Cochin" font-size="58.0" fill="#EAEAEA" transform="matrix(1.00, 0.00, -0.00, -1.00, 331.2, 2.5)">H</text><text xml:space="preserve" font-family="Cochin,Cochin" font-size="58.0" fill="#EAEAEA" transform="matrix(1.00, 0.00, -0.00, -1.00, 381.8, 2.5)">A</text><text xml:space="preserve" font-family="Cochin,Cochin" font-size="58.0" fill="#EAEAEA" transform="matrix(1.00, 0.00, -0.00, -1.00, 419.6, 2.5)">V</text><text xml:space="preserve" font-family="Cochin,Cochin" font-size="58.0" fill="#EAEAEA" transform="matrix(1.00, 0.00, -0.00, -1.00, 462.8, 2.5)">E</text><text xml:space="preserve" font-family="Cochin,Cochin" font-size="58.0" fill="#EAEAEA" transform="matrix(1.00, 0.00, -0.00, -1.00, 504.8, 2.5)"> </text><text xml:space="preserve" font-family="Cochin,Cochin" font-size="58.0" fill="#EAEAEA" transform="matrix(1.00, 0.00, -0.00, -1.00, 521.6, 2.5)">D</text><text xml:space="preserve" font-family="Cochin,Cochin" font-size="58.0" fill="#EAEAEA" transform="matrix(1.00, 0.00, -0.00, -1.00, 572.3, 2.5)">O</text><text xml:space="preserve" font-family="Cochin,Cochin" font-size="58.0" fill="#EAEAEA" transform="matrix(1.00, 0.00, -0.00, -1.00, 622.9, 2.5)">N</text><text xml:space="preserve" font-family="Cochin,Cochin" font-size="58.0" fill="#EAEAEA" transform="matrix(1.00, 0.00, -0.00, -1.00, 672.5, 2.5)">E</text><text xml:space="preserve" font-family="Cochin,Cochin" font-size="58.0" fill="#EAEAEA" transform="matrix(1.00, 0.00, -0.00, -1.00, 714.6, 2.5)">	</text><text xml:space="preserve" font-family="Cochin,Cochin" font-size="58.0" fill="#EAEAEA" transform="matrix(1.00, 0.00, -0.00, -1.00, 742.6, 2.5)">
</text><text xml:space="preserve" font-family="Cochin,Cochin" font-size="58.0" fill="#EAEAEA" transform="matrix(1.00, 0.00, -0.00, -1.00, 742.6, 2.5)"></text></g></svg>